<svg version="1" xmlns="http://www.w3.org/2000/svg" width="400" height="400" viewBox="0 0 300.000000 300.000000"><path d="M0 150v150h300V0H0v150zm245.5-90c10.5 2.7 18.6 7.3 26.3 14.9l6.5 6.4-2.8 2.1c-1.6 1.1-5.2 3.8-8 5.8l-5.1 3.6-4.1-4.6c-8.7-10-21.4-14.8-36.8-13.9-10.2.6-18.8 3.4-25.8 8.3-15 10.6-18.1 35.1-6.3 49.1 6.3 7.4 16.9 12.6 40.9 19.9 21.1 6.4 28.6 10.1 37.3 18.8 5.4 5.4 7.6 8.5 9.3 12.9 11.4 30.8-3.4 62.3-33.7 71.7-20.5 6.4-49.2 3-65.8-7.8-6.5-4.3-18.9-16.7-18-18 1.3-2.2 17-11.6 17.3-10.5.9 2.6 8.4 11.1 12 13.6 6.5 4.4 14.6 7.6 22.7 8.9 20.7 3.2 40.8-6.1 48.1-22.4 2.5-5.5 2.7-6.8 2.3-15.7-.5-10.8-1.7-14-7.8-20.1-5.6-5.6-15.4-10.2-36.3-17.1-22.2-7.4-30.8-11.5-38.5-18.4-19.8-18-20.5-52.9-1.2-72.4 15.2-15.4 42.4-21.5 67.5-15.1zm-110 10.5v8l-48.2.3L39 79v67l44.8.2 44.7.3.3 8.2.3 8.3H39v91H21V62l57.3.2 57.2.3v8z"/></svg>