<svg version="1" xmlns="http://www.w3.org/2000/svg" width="133.333" height="133.333" viewBox="0 0 100.000000 100.000000"><path d="M68.5 19.2c-9.3 3.3-14 11.7-11.5 20.7 2.1 7.7 4.7 9.7 21.5 15.7 7 2.5 10.5 6.2 10.5 11.2C89 73.7 82.9 79 75 79c-5.2 0-10.2-2.1-12.6-5.3-1.8-2.4-2-2.4-4.6-.9-1.6.9-2.8 1.9-2.8 2.3 0 1.9 7.1 7.1 11.4 8.4 9.1 2.7 17.3 1.5 23-3.5 4.6-4.1 5.9-7.8 5.4-15.1-.4-5.5-.8-6.5-3.9-9.4-2-1.8-5.6-3.9-8.2-4.8-2.6-1-6.8-2.5-9.4-3.4-7-2.4-10.3-6.1-10.3-11.5C63 28.3 68 24 76.5 24c4.8 0 7.6 1 11 4 1.9 1.8 2.1 1.8 4.4-.1 2.3-1.9 2.3-2 .5-4.1-4.6-5.1-16.2-7.3-23.9-4.6zM9 51v32h6V53h30v-6H15V25h32v-6H9v32z"/></svg>